<svg xmlns="http://www.w3.org/2000/svg" viewBox="0 0 24 24" role="img" aria-label="GitHub" fill="currentColor">
  <path d="M12 .296C5.373.296 0 5.669 0 12.296c0 5.302 3.438 9.8 8.205 11.387.6.113.82-.258.82-.577 0-.285-.01-1.04-.015-2.04-3.338.724-4.042-1.61-4.042-1.61-.546-1.385-1.332-1.754-1.332-1.754-1.089-.744.083-.729.083-.729 1.205.085 1.84 1.236 1.84 1.236 1.07 1.835 2.807 1.305 3.492.998.107-.776.418-1.305.762-1.605-2.665-.304-5.467-1.332-5.467-5.93 0-1.31.467-2.38 1.235-3.22-.124-.303-.536-1.524.117-3.176 0 0 1.008-.323 3.3 1.23a11.49 11.49 0 0 1 3.003-.404c1.018.005 2.043.138 3.003.404 2.29-1.553 3.296-1.23 3.296-1.23.656 1.652.244 2.873.12 3.176.77.84 1.233 1.91 1.233 3.22 0 4.61-2.807 5.624-5.48 5.921.43.372.823 1.102.823 2.222 0 1.606-.015 2.898-.015 3.293 0 .322.216.694.825.576C20.565 22.092 24 17.595 24 12.296 24 5.669 18.627.296 12 .296z"/>
</svg>
