<svg xmlns="http://www.w3.org/2000/svg" viewBox="0 0 24 24" role="img" aria-label="LinkedIn" fill="currentColor">
  <path d="M20.447 20.452H16.89v-5.569c0-1.328-.024-3.039-1.852-3.039-1.853 0-2.136 1.445-2.136 2.941v5.667H9.345V9h3.414v1.561h.049c.476-.9 1.637-1.85 3.369-1.85 3.601 0 4.267 2.37 4.267 5.455v6.286zM5.337 7.433a2.063 2.063 0 1 1 0-4.126 2.063 2.063 0 0 1 0 4.126zM7.119 20.452H3.556V9h3.563v11.452zM22.225 0H1.771C.792 0 0 .774 0 1.729v20.542C0 23.227.792 24 1.771 24h20.451C23.2 24 24 23.227 24 22.271V1.729C24 .774 23.2 0 22.222 0h.003z"/>
</svg>
